<svg width="35" height="16" viewBox="0 0 35 16" fill="none" xmlns="http://www.w3.org/2000/svg">
<path opacity="0.3" fill-rule="evenodd" clip-rule="evenodd" d="M7.00816 14.7322L0.722813 8.44689C0.337114 8.06119 0.337114 7.43585 0.722813 7.05015L7.00816 0.764802C7.39386 0.379102 8.0192 0.379102 8.4049 0.764802C8.7906 1.1505 8.7906 1.77585 8.4049 2.16155L3.80558 6.76087L23.1494 6.76087V8.73617L3.80558 8.73617L8.4049 13.3355C8.7906 13.7212 8.7906 14.3465 8.4049 14.7322C8.0192 15.1179 7.39386 15.1179 7.00816 14.7322Z" fill="black"/>
<path fill-rule="evenodd" clip-rule="evenodd" d="M29.7342 8.73506H24.4668V6.75977H29.7342V8.73506Z" fill="#AAAAAA"/>
<path fill-rule="evenodd" clip-rule="evenodd" d="M33.0261 8.73506H31.0508V6.75977H33.0261V8.73506Z" fill="#AAAAAA"/>
<path fill-rule="evenodd" clip-rule="evenodd" d="M35.0012 8.73506H34.3428V6.75977H35.0012V8.73506Z" fill="#AAAAAA"/>
</svg>
