<svg width="35" height="16" viewBox="0 0 35 16" fill="none" xmlns="http://www.w3.org/2000/svg">
<path opacity="0.3" fill-rule="evenodd" clip-rule="evenodd" d="M27.9938 14.7322L34.2791 8.44689C34.6648 8.06119 34.6648 7.43585 34.2791 7.05015L27.9938 0.764802C27.6081 0.379102 26.9828 0.379102 26.5971 0.764802C26.2114 1.1505 26.2114 1.77585 26.5971 2.16155L31.1964 6.76087L11.8525 6.76087L11.8525 8.73617L31.1964 8.73617L26.5971 13.3355C26.2114 13.7212 26.2114 14.3465 26.5971 14.7322C26.9828 15.1179 27.6081 15.1179 27.9938 14.7322Z" fill="black"/>
<path fill-rule="evenodd" clip-rule="evenodd" d="M5.26771 8.73506H10.5352V6.75977H5.26771V8.73506Z" fill="#AAAAAA"/>
<path fill-rule="evenodd" clip-rule="evenodd" d="M1.97588 8.73506H3.95117V6.75977H1.97588V8.73506Z" fill="#AAAAAA"/>
<path fill-rule="evenodd" clip-rule="evenodd" d="M0.000748456 8.73506H0.65918V6.75977H0.000748456V8.73506Z" fill="#AAAAAA"/>
</svg>
