<svg width="122" height="143" viewBox="0 0 122 143" fill="none" xmlns="http://www.w3.org/2000/svg">
<path fill-rule="evenodd" clip-rule="evenodd" d="M45.3143 0H0V39.7371H13.9429V13.9429L31.3714 13.9429V39.7371H45.3143V0ZM45.3143 114.68V71.1086H31.3714V100.737H13.9429V71.1086H0V114.68H45.3143ZM54.0286 0H67.9714V39.7371H54.0286V0ZM67.9714 48.4514H54.0286V114.68H67.9714V48.4514ZM122 39.7371V0H76.6857V39.7371H90.6286V13.9429L108.057 13.9429V39.7371H122ZM76.6857 114.68V71.1086H90.6286V100.737H108.057V71.1086H122V114.68H76.6857ZM76.6857 62.3943V48.4514H122V62.3943H76.6857ZM45.3143 48.4514V62.3943H0V48.4514H45.3143ZM120.405 142.566H116.382L113.775 137.524L112.72 138.155V142.566H109.139V129.378H112.72V135.106C112.87 134.817 113.042 134.529 113.234 134.24C113.433 133.951 113.625 133.678 113.811 133.419L116.581 129.378H120.478L116.319 135.286L120.405 142.566ZM102.675 137.316V129.378H99.1122V137.1C99.1122 137.725 99.04 138.236 98.8957 138.633C98.7574 139.03 98.5349 139.322 98.2282 139.508C97.9215 139.689 97.5246 139.779 97.0375 139.779C96.3579 139.779 95.8437 139.568 95.4949 139.147C95.1461 138.726 94.9717 138.05 94.9717 137.118V129.378H91.3905V137.397C91.3905 139.099 91.8686 140.416 92.8248 141.348C93.781 142.28 95.1672 142.747 96.9833 142.747C98.2523 142.747 99.3077 142.527 100.15 142.088C100.992 141.643 101.623 141.015 102.044 140.203C102.465 139.385 102.675 138.423 102.675 137.316ZM85.3958 135.692C85.3958 137.226 85.1101 138.501 84.5388 139.517C83.9675 140.533 83.1617 141.297 82.1213 141.808C81.0869 142.314 79.8691 142.566 78.4679 142.566H74.2012V129.378H78.7656C80.1849 129.378 81.3876 129.621 82.3739 130.109C83.3601 130.596 84.1088 131.308 84.62 132.246C85.1372 133.185 85.3958 134.333 85.3958 135.692ZM81.6973 135.819C81.6973 135.019 81.5891 134.357 81.3726 133.834C81.1621 133.305 80.8434 132.911 80.4164 132.652C79.9894 132.388 79.4512 132.256 78.8017 132.256H77.7643V139.643H78.5581C79.6406 139.643 80.4344 139.331 80.9396 138.705C81.4447 138.074 81.6973 137.112 81.6973 135.819ZM55.5703 129.378V142.566H59.1515V129.378H55.5703ZM45.4356 142.566V129.378H49.0168V142.566H45.4356ZM36.545 129.82C35.7512 129.525 34.7559 129.378 33.5592 129.378H29.2383V142.566H32.8014V137.767H33.7035L36.4999 142.566H40.5411L36.6984 136.82C37.1614 136.561 37.5583 136.261 37.8891 135.918C38.2258 135.569 38.4844 135.175 38.6649 134.736C38.8453 134.297 38.9355 133.81 38.9355 133.275C38.9355 132.415 38.734 131.696 38.3311 131.119C37.9342 130.542 37.3388 130.109 36.545 129.82ZM32.8014 132.075H33.505C34.1485 132.075 34.6146 132.195 34.9032 132.436C35.1919 132.676 35.3362 133.01 35.3362 133.437C35.3362 134.057 35.1618 134.487 34.813 134.727C34.4642 134.968 34.0162 135.088 33.469 135.088H32.8014V132.075ZM22.7731 129.378V137.316C22.7731 138.423 22.5626 139.385 22.1417 140.203C21.7207 141.015 21.0893 141.643 20.2473 142.088C19.4054 142.527 18.35 142.747 17.0811 142.747C15.2649 142.747 13.8788 142.28 12.9226 141.348C11.9664 140.416 11.4883 139.099 11.4883 137.397V129.378H15.0695V137.118C15.0695 138.05 15.2439 138.726 15.5927 139.147C15.9415 139.568 16.4557 139.779 17.1352 139.779C17.6223 139.779 18.0192 139.689 18.3259 139.508C18.6326 139.322 18.8551 139.03 18.9935 138.633C19.1378 138.236 19.21 137.725 19.21 137.1V129.378H22.7731ZM1.42578 129.378V142.566H5.00698V129.378H1.42578Z" fill="#333333"/>
</svg>
