<svg width="28" height="22" viewBox="0 0 28 22" fill="none" xmlns="http://www.w3.org/2000/svg">
<path opacity="0.3" d="M13.0456 0.714844V7.00462C13.0456 8.7906 12.6962 10.6154 11.9973 12.4791C11.3179 14.3233 10.4055 16.0704 9.26012 17.7205C8.11476 19.3512 6.86263 20.7392 5.50373 21.8846L0.0292969 18.6523C0.999941 17.1187 1.85411 15.4201 2.5918 13.5565C3.3489 11.6928 3.72745 9.52829 3.72745 7.06285V0.714844H13.0456ZM27.6926 0.714844V7.00462C27.6926 8.7906 27.3432 10.6154 26.6444 12.4791C25.9649 14.3233 25.0525 16.0704 23.9071 17.7205C22.7618 19.3512 21.4999 20.7392 20.1216 21.8846L14.6472 18.6523C15.6373 17.1187 16.5011 15.4201 17.2388 13.5565C17.9959 11.6928 18.3745 9.52829 18.3745 7.06285V0.714844H27.6926Z" fill="#181717"/>
</svg>
