<svg width="29" height="22" viewBox="0 0 29 22" fill="none" xmlns="http://www.w3.org/2000/svg">
<path opacity="0.3" d="M0.307617 21.8846V15.5948C0.307617 13.8088 0.657049 11.984 1.35591 10.1204C2.05478 8.25675 2.97689 6.49988 4.12225 4.84978C5.26761 3.19969 6.51003 1.82138 7.84952 0.714844L13.324 3.94709C12.2368 5.65542 11.3438 7.44141 10.645 9.30504C9.96552 11.1687 9.6258 13.2459 9.6258 15.5366V21.8846H0.307617ZM15.0129 21.8846V15.5948C15.0129 13.8088 15.3623 11.984 16.0612 10.1204C16.76 8.25675 17.6821 6.49988 18.8275 4.84978C19.9729 3.19969 21.2153 1.82138 22.5548 0.714844L28.0292 3.94709C26.9421 5.65542 26.0491 7.44141 25.3502 9.30504C24.6708 11.1687 24.3311 13.2459 24.3311 15.5366V21.8846H15.0129Z" fill="#181717"/>
</svg>
