<svg width="592" height="557" viewBox="0 0 592 557" fill="none" xmlns="http://www.w3.org/2000/svg">
<g opacity="0.03">
<path d="M219.886 0H6.45229e-06V192.823H67.6572V67.6571L152.229 67.6572V192.823H219.886V0Z" fill="#313131"/>
<path d="M219.886 556.48V345.051H152.229V488.823H67.6572V345.051H6.45229e-06L0 556.48H219.886Z" fill="#313131"/>
<path d="M329.829 0H262.171V192.823H329.829V0Z" fill="#313131"/>
<path d="M329.829 235.109H262.171V556.48H329.829V235.109Z" fill="#313131"/>
<path d="M592 0V192.823H524.343V67.6572L439.771 67.6571V192.823H372.114V0H592Z" fill="#313131"/>
<path d="M372.114 556.48V345.051H439.771V488.823H524.343V345.051H592V556.48H372.114Z" fill="#313131"/>
<path d="M372.114 235.109V302.766H592V235.109H372.114Z" fill="#313131"/>
<path d="M219.886 235.109V302.766H6.45229e-06V235.109H219.886Z" fill="#313131"/>
</g>
</svg>
